<svg xmlns="http://www.w3.org/2000/svg" width="512" height="512" viewBox="0 0 512 512" role="img" aria-hidden="true">
  <path fill="#3c873a" d="M256 448c-5 0-10-2-13-6l-88-61v-91l103 61c5 3 10 6 17 8s13 4 21 6c43 13 112 16 173-52 61-61 71-154 71-154s-93 10-154 71c-35 39-93 53-173 53-8 0-15-1-22-3V122c63-41 154-71 267-71 113 0 204 71 267 207s-154 297-379 297z"/>
  <path fill="#333" d="M256 64c133 21 379 207 379 207S389 447 256 448V282c78 0 130-41 173-92 61-71 71-154 71-154s-130-10-199 59c-17 21-43 52-113 71V64z"/>
  <ellipse cx="118" cy="256" rx="71" ry="140" transform="rotate(-18 118 256)" fill="#68a063"/>
</svg>
